<?xml version="1.0" standalone="no"?>
<!DOCTYPE svg PUBLIC "-//W3C//DTD SVG 20010904//EN"
 "http://www.w3.org/TR/2001/REC-SVG-20010904/DTD/svg10.dtd">
<svg version="1.0" xmlns="http://www.w3.org/2000/svg"
 width="2048.000000pt" height="2048.000000pt" viewBox="0 0 2048.000000 2048.000000"
 preserveAspectRatio="xMidYMid meet">
<metadata>
Created by potrace 1.16, written by Peter Selinger 2001-2019
</metadata>
<g transform="translate(0.000000,2048.000000) scale(0.100000,-0.100000)"
fill="#000000" stroke="none">
<path d="M9935 17059 c-1361 -57 -2690 -532 -3781 -1350 -1358 -1018 -2287
-2490 -2613 -4139 -268 -1358 -119 -2774 424 -4030 297 -688 694 -1305 1201
-1870 123 -137 409 -422 544 -542 623 -553 1373 -1001 2165 -1295 1546 -574
3287 -561 4827 35 393 153 799 355 1141 570 481 300 868 612 1278 1028 1251
1272 1949 2980 1949 4774 0 963 -202 1910 -594 2787 -676 1513 -1911 2753
-3421 3434 -810 365 -1637 560 -2540 599 -252 11 -314 11 -580 -1z m747 -149
c1544 -104 2974 -722 4114 -1778 926 -857 1605 -1995 1919 -3217 395 -1532
238 -3139 -444 -4570 -206 -431 -517 -925 -805 -1280 -248 -304 -617 -685
-881 -909 -1030 -875 -2256 -1408 -3587 -1561 -534 -61 -1160 -53 -1673 21
-206 29 -236 34 -366 60 -274 53 -686 162 -881 233 -385 141 -537 205 -818
345 -493 246 -952 550 -1365 902 -192 164 -575 546 -739 739 -1345 1577 -1879
3652 -1466 5693 132 653 368 1290 703 1897 433 786 1072 1522 1807 2081 787
599 1715 1021 2685 1220 284 59 625 106 890 123 181 12 733 12 907 1z"/>
<path d="M6665 12910 c-692 -63 -1324 -440 -1687 -1005 -262 -407 -381 -826
-365 -1290 9 -260 53 -476 143 -704 231 -585 663 -984 1279 -1180 371 -119
852 -150 1255 -82 402 69 736 245 1061 558 l95 93 2 170 c1 98 -2 170 -7 170
-5 0 -19 -12 -30 -27 -28 -40 -285 -293 -356 -350 -206 -169 -436 -283 -672
-334 -143 -30 -429 -38 -578 -14 -266 41 -461 137 -631 311 -127 129 -222 283
-297 484 -173 463 -225 1145 -127 1655 35 181 114 432 172 550 170 340 477
596 828 690 633 169 1284 -170 1548 -805 34 -82 102 -286 102 -306 0 -2 25 -4
55 -4 l55 0 0 611 0 612 90 -7 c159 -12 271 -62 327 -148 59 -88 57 -23 60
-1708 4 -1526 1 -1713 -29 -1812 -18 -59 -95 -139 -165 -171 -66 -29 -177 -47
-294 -47 l-79 0 0 -55 0 -56 1218 4 c1046 3 1231 6 1317 19 470 74 751 199
988 440 97 98 106 104 81 61 -59 -102 -126 -194 -184 -251 -68 -68 -188 -132
-282 -153 l-58 -12 0 -54 0 -53 686 0 685 0 -3 52 -3 52 -137 17 c-225 28
-294 57 -357 149 -61 90 -61 222 0 396 24 68 149 367 200 477 l12 27 728 0
727 0 136 -320 c163 -382 182 -430 191 -496 10 -74 -7 -126 -55 -167 -58 -50
-131 -68 -292 -74 l-138 -6 0 -53 0 -54 995 0 995 0 0 53 0 53 -67 11 c-95 17
-202 72 -255 133 -90 103 -217 341 -378 710 -40 91 -112 255 -160 365 -49 110
-123 279 -165 375 -43 96 -127 288 -187 425 -61 138 -125 284 -143 325 -41 94
-83 188 -178 405 -41 94 -116 262 -165 375 -50 113 -159 360 -242 550 -84 190
-159 362 -168 383 -14 33 -19 38 -45 35 -33 -3 -3 59 -629 -1338 -78 -173
-221 -493 -318 -710 -98 -217 -246 -548 -330 -735 -84 -187 -175 -391 -203
-453 -27 -62 -51 -111 -52 -110 -2 2 3 32 11 68 38 179 24 382 -38 548 -78
206 -244 384 -463 495 -140 71 -401 162 -567 198 -32 7 -58 15 -58 18 0 4 39
17 88 30 273 74 511 197 642 330 243 246 295 596 140 928 -150 321 -443 533
-825 598 -224 37 -250 38 -1430 44 l-1170 6 -3 48 -3 47 -54 0 c-51 0 -55 -2
-61 -27 -47 -214 -162 -303 -335 -259 -35 9 -147 48 -249 85 -270 101 -441
147 -640 176 -131 18 -386 26 -505 15z m3623 -331 c233 -23 378 -84 513 -218
97 -97 143 -178 181 -316 18 -67 22 -108 22 -250 0 -146 -3 -182 -22 -253 -71
-264 -257 -446 -525 -517 -113 -29 -203 -42 -374 -51 l-133 -7 0 816 0 816
118 -5 c64 -3 163 -10 220 -15z m3045 -1081 c3 -7 58 -134 122 -283 107 -246
218 -505 406 -940 38 -88 69 -163 69 -167 0 -5 -279 -8 -620 -8 -341 0 -620 2
-620 5 0 3 59 137 131 297 72 161 212 476 311 701 100 224 185 407 189 407 4
0 9 -6 12 -12z m-3138 -768 c393 -26 593 -107 749 -302 239 -299 274 -758 83
-1098 -50 -89 -176 -219 -259 -268 -130 -77 -278 -120 -439 -129 -151 -9 -247
21 -312 98 -70 81 -67 46 -67 921 l0 788 48 0 c26 0 115 -5 197 -10z"/>
<path d="M5147 8160 c-122 -31 -216 -135 -236 -259 -21 -131 47 -262 160 -310
70 -31 170 -38 240 -18 57 17 139 77 139 103 0 21 -7 18 -52 -21 -52 -44 -96
-58 -167 -53 -113 8 -161 76 -169 238 -7 147 26 228 109 270 93 48 207 7 251
-90 12 -27 25 -47 29 -45 9 6 8 184 -1 190 -4 3 -10 -4 -13 -15 -6 -25 -38
-26 -98 -5 -56 20 -144 27 -192 15z"/>
<path d="M6763 8148 c-2 -5 3 -8 12 -8 29 0 35 -49 35 -275 0 -224 -6 -275
-35 -275 -8 0 -15 -4 -15 -10 0 -6 40 -10 100 -10 55 0 100 3 100 6 0 4 -8 13
-17 20 -15 10 -19 32 -21 142 -4 143 6 176 54 188 48 12 54 -5 54 -171 0 -147
-1 -153 -22 -168 -22 -15 -17 -16 80 -16 56 -1 102 2 102 7 0 4 -9 13 -20 20
-18 11 -20 23 -20 151 0 76 -5 152 -11 169 -23 66 -111 86 -173 38 -19 -14
-37 -26 -40 -26 -3 0 -6 51 -6 113 l0 112 -76 0 c-42 0 -78 -3 -81 -7z"/>
<path d="M7910 8148 c0 -5 10 -8 23 -8 45 0 47 -9 47 -275 0 -266 -2 -275 -47
-275 -13 0 -23 -5 -23 -11 0 -16 363 -6 413 11 55 20 104 71 112 119 12 72
-40 141 -117 158 -37 7 -35 16 7 31 18 7 46 27 61 45 22 27 25 38 22 79 -6 54
-25 81 -80 109 -31 16 -64 19 -227 21 -105 2 -191 0 -191 -4z m318 -46 c71
-46 48 -178 -35 -201 -75 -21 -73 -25 -73 108 l0 119 43 -6 c23 -3 53 -12 65
-20z m-3 -258 c71 -33 86 -147 28 -206 -33 -33 -94 -48 -118 -28 -12 10 -15
38 -15 131 l0 119 36 0 c20 0 51 -7 69 -16z"/>
<path d="M11496 7914 c-117 -263 -139 -303 -174 -319 -41 -18 -22 -25 73 -25
57 0 95 4 95 10 0 6 -11 10 -24 10 -14 0 -32 7 -41 16 -18 18 -16 36 10 97
l16 38 105 -3 106 -3 24 -58 c28 -65 22 -87 -22 -87 -13 0 -24 -4 -24 -10 0
-6 53 -10 140 -10 87 0 140 4 140 10 0 6 -9 10 -20 10 -30 0 -30 0 -220 428
-34 78 -66 142 -69 142 -3 0 -55 -111 -115 -246z m139 -123 c6 -20 4 -21 -79
-21 -47 0 -86 3 -86 6 0 3 19 49 42 101 l42 96 37 -80 c20 -44 40 -90 44 -102z"/>
<path d="M6597 8093 c-8 -15 -42 -55 -76 -88 -34 -33 -61 -63 -61 -68 0 -5 10
-7 23 -5 22 3 22 2 27 -154 5 -148 6 -158 29 -182 19 -20 34 -26 69 -26 37 0
50 6 79 35 20 20 33 39 29 42 -3 4 -15 -3 -26 -15 -25 -26 -33 -27 -51 -5 -10
11 -15 57 -17 160 l-4 143 51 0 c44 0 51 3 51 19 0 17 -8 20 -47 23 l-48 3 0
67 c-1 78 -8 91 -28 51z"/>
<path d="M14285 8084 c-10 -19 -45 -60 -77 -89 -32 -30 -58 -56 -58 -59 0 -4
12 -6 28 -6 l27 0 -3 -112 c-4 -148 3 -194 35 -224 39 -36 105 -34 144 5 38
38 38 58 -1 30 -24 -18 -32 -20 -45 -9 -12 10 -15 39 -15 161 l0 148 47 3 c36
2 49 7 51 21 3 14 -4 17 -47 17 l-51 0 0 75 c0 41 -3 75 -8 75 -4 0 -16 -16
-27 -36z"/>
<path d="M5720 7984 c-73 -11 -93 -18 -121 -41 -42 -36 -54 -69 -34 -99 11
-17 25 -24 48 -24 55 0 73 36 42 84 -14 21 -14 25 0 36 24 20 75 17 91 -5 8
-10 14 -40 14 -65 l0 -46 -71 -34 c-96 -47 -139 -89 -139 -139 0 -81 78 -105
163 -51 26 16 47 25 47 20 0 -6 9 -19 20 -30 31 -31 83 -26 122 10 33 30 33
30 7 24 l-26 -5 -5 143 c-6 181 -15 200 -108 217 -19 4 -42 6 -50 5z"/>
<path d="M7425 7984 c-6 -1 -22 -5 -37 -8 -72 -16 -129 -106 -130 -205 -2
-137 91 -225 218 -206 63 9 126 69 144 135 26 95 -9 209 -76 251 -34 21 -97
38 -119 33z m54 -43 c24 -24 34 -110 26 -219 -8 -97 -24 -132 -60 -132 -55 0
-69 46 -63 216 3 107 5 117 27 135 29 24 46 24 70 0z"/>
<path d="M9091 7979 c-50 -10 -82 -48 -88 -102 -7 -59 15 -91 108 -159 58 -42
69 -54 69 -79 0 -22 -7 -32 -26 -41 -36 -17 -92 14 -119 64 -11 21 -22 38 -25
38 -3 0 -3 -32 -2 -71 3 -57 6 -68 17 -59 10 8 29 8 74 -1 53 -11 65 -11 96 4
65 31 93 113 60 177 -8 15 -46 51 -84 79 -88 63 -103 87 -71 113 14 11 31 16
44 12 21 -6 70 -53 93 -90 11 -16 12 -8 11 49 -1 69 -3 73 -27 58 -7 -5 -30
-3 -55 4 -24 7 -55 9 -75 4z"/>
<path d="M10245 7985 c-5 -2 -22 -6 -37 -9 -41 -9 -95 -61 -114 -111 -23 -62
-16 -179 15 -228 30 -50 98 -81 157 -73 55 7 85 26 118 76 35 53 33 60 -7 22
-49 -47 -86 -51 -129 -13 -19 17 -40 47 -46 69 -22 74 -25 72 98 72 123 0 120
-2 99 73 -12 44 -61 103 -92 112 -38 11 -52 13 -62 10z"/>
<path d="M10900 7979 c-42 -9 -77 -47 -85 -93 -10 -49 19 -102 74 -140 61 -42
111 -91 111 -109 0 -24 -28 -47 -57 -47 -25 0 -83 50 -110 95 -10 17 -12 8
-12 -52 -1 -40 3 -73 8 -73 5 0 11 5 13 12 3 9 17 9 61 -1 70 -15 106 -8 140
27 48 50 55 112 19 161 -10 15 -51 50 -90 80 -77 57 -92 90 -51 111 32 18 77
-6 110 -59 16 -25 29 -41 30 -35 2 23 -3 119 -7 123 -2 2 -10 -2 -18 -8 -8 -7
-20 -9 -27 -6 -23 15 -75 21 -109 14z"/>
<path d="M12053 7982 c-13 -2 -36 -16 -52 -32 -64 -64 -42 -145 57 -218 81
-58 96 -76 88 -106 -12 -50 -78 -44 -126 10 -16 19 -30 41 -30 49 0 8 -5 15
-11 15 -7 0 -10 -22 -8 -62 3 -74 6 -83 24 -68 10 8 29 8 72 -1 52 -11 63 -10
96 6 41 19 77 75 77 118 0 34 -37 85 -90 125 -105 79 -123 109 -80 132 31 17
90 -16 115 -62 11 -21 23 -38 26 -38 6 0 -1 122 -7 129 -2 2 -10 -2 -18 -8 -8
-7 -21 -9 -27 -5 -18 11 -80 20 -106 16z"/>
<path d="M12529 7974 c-13 -12 -21 -14 -37 -5 -11 6 -42 11 -67 11 -40 0 -52
-5 -81 -34 -29 -29 -34 -41 -34 -79 0 -55 25 -88 111 -149 61 -42 81 -77 62
-107 -26 -41 -110 -8 -140 54 -16 34 -41 51 -29 19 3 -9 6 -41 6 -71 0 -49 2
-54 15 -43 13 11 26 11 70 0 45 -11 60 -11 91 1 45 17 73 52 81 102 9 58 -12
93 -95 155 -95 72 -105 87 -73 113 15 12 32 17 45 13 21 -6 71 -54 93 -90 10
-16 12 -12 11 31 0 28 -3 60 -6 73 -7 21 -8 22 -23 6z"/>
<path d="M13243 7980 c-68 -16 -114 -59 -139 -134 -46 -135 40 -287 162 -286
43 1 108 34 132 68 30 41 28 47 -7 23 -18 -13 -45 -21 -70 -21 -34 0 -44 5
-64 33 -36 49 -51 94 -51 161 -1 71 17 123 47 132 24 8 47 -18 47 -53 0 -26
41 -73 64 -73 22 0 46 29 46 56 0 66 -84 113 -167 94z"/>
<path d="M6182 7955 c-36 -30 -42 -31 -42 -5 0 18 -7 20 -82 20 -77 0 -81 -1
-60 -16 21 -15 22 -21 22 -179 0 -154 -1 -166 -20 -177 -11 -7 -20 -16 -20
-20 0 -5 45 -8 100 -8 94 0 126 10 80 25 -19 6 -20 15 -20 150 0 143 0 144 26
164 33 26 60 27 74 2 5 -11 10 -81 10 -155 0 -123 -2 -138 -20 -156 -11 -11
-20 -22 -20 -25 0 -3 45 -5 100 -5 92 0 128 10 80 23 -19 5 -20 14 -20 129 -1
210 -22 258 -111 258 -36 0 -55 -6 -77 -25z"/>
<path d="M9785 7955 c-37 -30 -45 -31 -45 -5 0 18 -6 20 -82 19 -65 0 -78 -3
-61 -11 29 -14 33 -33 33 -185 0 -137 -9 -183 -35 -183 -8 0 -15 -4 -15 -10 0
-6 40 -10 100 -10 55 0 100 2 100 5 0 3 -9 14 -20 25 -18 18 -20 33 -20 149 0
122 1 129 25 155 26 28 54 33 73 14 8 -8 12 -59 12 -164 0 -146 -1 -152 -22
-167 -22 -15 -17 -16 80 -16 62 -1 102 3 102 9 0 6 -6 10 -14 10 -22 0 -26 24
-26 166 0 189 -18 224 -112 224 -31 0 -51 -7 -73 -25z"/>
<path d="M10507 7952 c-36 -38 -46 -96 -23 -140 9 -18 48 -56 87 -85 71 -53
91 -86 72 -116 -25 -41 -99 -14 -135 49 -22 39 -46 56 -34 24 3 -9 6 -41 6
-71 0 -47 2 -54 14 -44 11 10 28 10 73 1 73 -15 122 2 153 52 44 73 17 143
-83 211 -32 22 -66 51 -75 65 -15 23 -15 25 7 44 15 11 32 16 45 12 21 -6 71
-54 93 -90 10 -16 12 -8 12 50 1 61 -1 67 -16 61 -10 -5 -25 -7 -33 -6 -126
14 -134 14 -163 -17z"/>
<path d="M12744 7961 c-92 -56 -122 -194 -66 -302 68 -133 245 -132 314 0 59
112 24 256 -74 307 -40 21 -136 18 -174 -5z m125 -20 c26 -26 35 -93 28 -213
-6 -107 -20 -138 -62 -138 -42 0 -59 33 -63 130 -6 118 5 197 29 221 24 24 44
24 68 0z"/>
<path d="M13812 7959 c-40 -20 -72 -61 -72 -92 0 -23 35 -47 69 -47 43 0 62
37 37 74 -22 35 -20 45 11 57 19 7 35 7 54 -1 23 -10 28 -20 34 -60 4 -27 4
-54 0 -59 -3 -6 -26 -19 -50 -30 -113 -50 -174 -117 -159 -177 15 -60 103 -70
169 -20 38 30 45 31 45 13 0 -45 88 -62 134 -26 32 25 33 36 4 35 -23 -1 -23
1 -26 146 l-3 146 -35 31 c-31 28 -41 31 -102 31 -48 0 -79 -6 -110 -21z"/>
<path d="M14450 7968 c0 -4 9 -9 19 -13 18 -6 20 -17 23 -148 4 -185 1 -208
-23 -214 -48 -13 -10 -23 86 -23 63 0 105 4 105 10 0 6 -7 10 -15 10 -28 0
-35 39 -35 209 l0 169 -80 4 c-44 2 -80 0 -80 -4z"/>
<path d="M14814 7971 c-30 -13 -80 -75 -94 -116 -7 -20 -10 -67 -8 -105 5 -87
39 -143 105 -172 90 -40 185 -6 238 83 29 49 28 168 -3 226 -33 63 -74 87
-152 90 -36 2 -74 -1 -86 -6z m115 -30 c24 -24 36 -123 26 -229 -8 -88 -24
-122 -60 -122 -55 0 -69 46 -63 216 3 107 5 117 27 135 29 24 46 24 70 0z"/>
<path d="M15215 7969 c-44 -3 -72 -6 -63 -7 31 -3 38 -38 38 -191 0 -138 -2
-153 -20 -171 -11 -11 -20 -22 -20 -25 0 -3 43 -5 95 -5 87 0 118 9 80 24 -12
4 -15 31 -15 149 0 139 1 144 24 166 18 17 32 22 50 17 21 -5 25 -13 31 -61 4
-30 5 -101 3 -156 -3 -81 -7 -104 -21 -114 -9 -7 -17 -15 -17 -19 0 -3 43 -6
95 -6 52 0 95 3 95 6 0 4 -8 13 -17 20 -16 11 -19 35 -23 174 l-5 162 -28 24
c-39 33 -101 33 -151 -1 -45 -30 -50 -31 -43 -5 3 11 2 21 -1 22 -4 2 -43 0
-87 -3z"/>
<path d="M8517 7955 c19 -13 21 -26 25 -167 5 -167 11 -189 60 -214 40 -21 89
-13 134 21 l34 26 0 -25 c0 -26 1 -26 80 -26 75 0 105 11 60 23 -19 5 -20 14
-20 191 l0 186 -82 0 c-77 0 -81 -1 -60 -16 21 -14 22 -22 22 -153 0 -131 -1
-139 -23 -159 -31 -30 -73 -29 -81 1 -3 12 -6 91 -6 175 l0 152 -82 0 c-75 0
-81 -1 -61 -15z"/>
<path d="M9348 7954 c21 -15 22 -21 22 -186 0 -161 -1 -170 -20 -175 -49 -13
-12 -23 85 -23 105 0 125 6 83 25 -22 10 -23 14 -26 193 l-2 182 -82 0 c-78 0
-81 -1 -60 -16z"/>
<path d="M13488 7958 c22 -11 22 -14 22 -185 0 -166 -1 -175 -20 -180 -49 -13
-12 -23 85 -23 63 0 105 4 105 10 0 6 -7 10 -15 10 -28 0 -35 39 -35 209 l0
171 -82 -1 c-67 0 -79 -2 -60 -11z"/>
<path d="M4780 6746 c0 -5 21 -40 47 -78 l47 -68 5366 0 5366 0 49 70 c26 39
46 73 43 75 -3 3 -11 -6 -18 -20 -13 -24 -30 -34 -30 -17 0 4 -9 8 -20 8 -12
0 -19 -5 -16 -13 3 -6 -4 -15 -15 -18 -10 -4 -19 -13 -19 -21 0 -19 2 -18 36
11 15 13 30 23 32 21 7 -8 -29 -66 -38 -61 -6 3 -7 -1 -4 -9 6 -14 -515 -16
-5366 -16 -4830 0 -5372 2 -5366 15 3 9 -1 18 -10 22 -11 4 -14 14 -10 32 3
14 3 20 0 14 -9 -21 -27 -15 -21 6 3 13 0 18 -8 15 -7 -3 -20 5 -29 18 -9 12
-16 18 -16 14z"/>
<path d="M4800 6742 c0 -8 10868 -7 10877 2 4 3 -2442 6 -5435 6 -2993 0
-5442 -3 -5442 -8z"/>
<path d="M4940 6665 l0 -25 5283 0 c5511 1 5317 -1 5317 39 0 15 -15 14 -28
-2 -8 -9 -1073 -12 -5270 -12 -3137 0 -5258 -4 -5255 -9 4 -5 1 -6 -5 -2 -7 4
-12 14 -12 22 0 8 -7 14 -15 14 -9 0 -15 -9 -15 -25z"/>
<path d="M6308 6623 c738 -2 1946 -2 2685 0 738 1 134 2 -1343 2 -1477 0
-2081 -1 -1342 -2z"/>
<path d="M11858 6623 c673 -2 1771 -2 2440 0 669 1 119 2 -1223 2 -1342 0
-1890 -1 -1217 -2z"/>
<path d="M5050 6348 c5 -7 29 -37 51 -66 22 -28 46 -49 51 -45 7 3 8 1 4 -6
-4 -6 -2 -18 4 -26 11 -13 655 -15 5079 -15 l5068 0 53 68 c30 37 60 75 68 85
14 16 -234 17 -5187 17 -4160 0 -5200 -3 -5191 -12z"/>
<path d="M5378 5946 c10 -13 48 -56 84 -95 l66 -71 4714 0 4715 0 68 78 c38
42 75 85 83 95 14 16 -218 17 -4867 17 l-4882 0 19 -24z"/>
<path d="M5730 5578 c0 -4 50 -52 111 -107 l111 -101 4288 0 4289 0 107 98
c59 53 109 102 111 107 2 7 -1505 10 -4507 10 -2481 0 -4510 -3 -4510 -7z"/>
<path d="M6185 5174 c17 -14 83 -66 147 -115 l117 -89 3791 0 3791 0 117 89
c64 49 131 101 147 115 l30 25 -4085 0 -4085 0 30 -25z"/>
<path d="M6705 4796 c39 -27 231 -144 312 -189 l82 -47 3141 0 3140 0 93 52
c79 44 304 182 316 194 2 2 -1595 4 -3550 4 -3013 0 -3550 -2 -3534 -14z"/>
<path d="M7445 4383 c76 -39 352 -160 454 -199 l63 -24 2278 0 2278 0 63 24
c108 41 360 151 444 194 l80 41 -2865 0 -2865 0 70 -36z"/>
<path d="M8356 4031 c21 -19 388 -112 630 -160 183 -36 457 -75 686 -98 219
-21 872 -24 1083 -5 360 33 649 78 950 148 185 43 407 104 419 115 6 5 -820 9
-1884 9 -1048 0 -1890 -4 -1884 -9z"/>
</g>
</svg>
